<?xml version="1.0" encoding="UTF-8"?>
<svg width="76px" height="76px" viewBox="0 0 76 76" version="1.1" xmlns="http://www.w3.org/2000/svg" xmlns:xlink="http://www.w3.org/1999/xlink">
    <!-- Generator: Sketch 50 (54983) - http://www.bohemiancoding.com/sketch -->
    <title>价值观icon </title>
    <desc>Created with Sketch.</desc>
    <defs></defs>
    <g id="Page-1" stroke="none" stroke-width="1" fill="none" fill-rule="evenodd">
        <g id="妙链官网-公司简介-" transform="translate(-1028.000000, -610.000000)">
            <g id="2" transform="translate(324.000000, 607.000000)">
                <g transform="translate(523.000000, 3.000000)" id="价值观icon-">
                    <g transform="translate(181.000000, 0.000000)">
                        <circle id="Oval-3" fill="#F6FAFD" cx="38" cy="38" r="38"></circle>
                        <g id="Group" transform="translate(20.000000, 17.500000)">
                            <path d="M18.0536107,4.22058824 C10.5740016,4.22058824 4.48958841,10.3246366 4.48958841,17.8283833 C4.48958841,23.5296867 8.00019554,28.4200779 12.9675769,30.439354 C13.2867932,30.5684596 13.6060095,30.6872368 13.935521,30.7906504 L13.935521,36.1717074 L22.1717004,36.1717074 L22.1717004,30.7906504 C22.5009546,30.6872368 22.8254472,30.5684596 23.1393871,30.439354 C28.1068328,28.4150427 31.6173756,23.5243934 31.6173756,17.8283833 C31.6173756,10.3246366 25.5330268,4.22058824 18.0536107,4.22058824 Z" id="Fill-1" fill="#0B85EF"></path>
                            <path d="M28.3048347,7.72253088 C25.5498431,4.95864853 21.8860768,3.43435294 17.9868381,3.43435294 C14.0873589,3.43435294 10.4238331,4.95864853 7.6689015,7.72253088 C4.91390985,10.4864132 3.39445743,14.1620029 3.39445743,18.073825 C3.39445743,21.9856471 4.91390985,25.6612368 7.6689015,28.4250588 C9.0007212,29.7612368 10.5391052,30.8031794 12.217222,31.5267088 L12.217222,37.1364132 L23.7564541,37.1364132 L23.7564541,31.5267088 C25.4343306,30.8031794 26.973015,29.7562926 28.3048347,28.4250588 C31.0598264,25.6612368 32.5789783,21.9856471 32.5789783,18.073825 C32.5789783,14.1620029 31.0598264,10.4911162 28.3048347,7.72253088 Z M22.7370952,29.8575265 C22.4389382,29.9781147 22.1407813,30.0890559 21.8332487,30.1856471 L21.8332487,35.2166485 L14.1404274,35.2166485 L14.1404274,30.1856471 C13.8326544,30.0890559 13.5298097,29.9781147 13.2363406,29.8575265 C8.59666778,27.9667632 5.31766277,23.3990015 5.31766277,18.0785279 C5.31766277,11.0700603 11.0006745,5.36846765 17.9868381,5.36846765 C24.9728214,5.36846765 30.655773,11.0700603 30.655773,18.0785279 C30.655773,23.3990015 27.376828,27.9667632 22.7370952,29.8575265 Z" id="Fill-2" fill="#D1EAFF"></path>
                            <path d="M17.0252354,1.98729412 L18.9484407,1.98729412 L18.9484407,0.0578823529 L17.0252354,0.0578823529 L17.0252354,1.98729412 Z M0,18.9226456 L1.92320534,18.9226456 L1.92320534,16.9932338 L0,16.9932338 L0,18.9226456 Z M3.99149249,6.66641912 L5.35125876,5.30226471 L6.71126544,6.66641912 L5.35125876,8.03081471 L3.99149249,6.66641912 Z M29.2330818,6.66599706 L30.5928481,5.30160147 L31.9528548,6.66599706 L30.5928481,8.03015147 L29.2330818,6.66599706 Z M34.0213823,18.9226456 L35.9445876,18.9226456 L35.9445876,16.9932338 L34.0213823,16.9932338 L34.0213823,18.9226456 Z" id="Fill-3" fill="#0B85EF"></path>
                            <polygon id="Path" fill="#D1EAFF" points="24.7851886 17.6590618 23.4247613 16.2986456 20.7080534 19.0239397 19.3475659 17.6590618 17.9868381 16.2986456 16.6261703 17.6590618 15.2654424 19.0239397 12.548975 16.2986456 11.1882471 17.6590618 13.9047145 20.3889985 15.2654424 21.7541176 17.9868381 19.0239397 20.7080534 21.7541176 22.0687212 20.3889985"></polygon>
                            <polygon id="Path" fill="#D1EAFF" points="12.217222 40.9999397 23.7564541 40.9999397 23.7564541 39.0705279 12.217222 39.0705279"></polygon>
                        </g>
                    </g>
                </g>
            </g>
        </g>
    </g>
</svg>