<?xml version="1.0" encoding="UTF-8"?>
<svg width="76px" height="76px" viewBox="0 0 76 76" version="1.1" xmlns="http://www.w3.org/2000/svg" xmlns:xlink="http://www.w3.org/1999/xlink">
    <!-- Generator: Sketch 50 (54983) - http://www.bohemiancoding.com/sketch -->
    <title>数字资产icon</title>
    <desc>Created with Sketch.</desc>
    <defs></defs>
    <g id="Page-1" stroke="none" stroke-width="1" fill="none" fill-rule="evenodd">
        <g id="妙链官网-公司简介-" transform="translate(-775.000000, -855.000000)">
            <g id="3" transform="translate(325.000000, 855.000000)">
                <g id="数字资产icon" transform="translate(450.000000, 0.000000)">
                    <circle id="Oval-3" fill="#F6FAFD" cx="38" cy="38" r="38"></circle>
                    <g id="Group" transform="translate(17.000000, 17.000000)">
                        <path d="M20.9799732,0.0409756098 C9.39299268,0.0409756098 0,9.43396829 0,21.0209488 C0,32.607161 9.39299268,41.9999488 20.9799732,41.9999488 C32.5668,41.9999488 41.9593829,32.6073659 41.9593829,21.0209488 C41.9593829,9.43396829 32.5668,0.0409756098 20.9799732,0.0409756098 Z" id="Fill-4" fill="#0B85EF"></path>
                        <g id="Group-4" transform="translate(16.000000, 10.000000)" fill="#D1EAFF">
                            <path d="M9.26026829,18.2379061 C9.20661585,18.2874061 7.93726829,19.4556061 6.8150061,20.3294622 C5.95703659,20.9985171 5.20923171,21.4508183 5.17773171,21.4698134 L5.13086585,21.4943622 C5.09304878,21.5107012 4.21053659,21.9057354 3.36289634,21.9057354 C2.31131707,21.9057354 1.69425,21.3098037 1.66940854,20.2705451 C1.62305488,18.3909939 2.8040061,14.398839 3.84589634,10.876572 C4.00813415,10.3287317 4.16452439,9.80065122 4.30840854,9.30549024 C4.45246341,8.80871951 4.46548171,8.55828171 4.45677439,8.44306341 C4.02947561,8.57148171 2.95437805,9.43093049 2.02568293,10.3999232 L1.73210976,10.706622 L0.383756098,9.57194512 L0.625170732,9.26681585 C1.00214634,8.79016707 1.98069512,7.78390854 3.13061585,6.96490488 C4.22470732,6.18501829 5.36429878,5.65979512 6.25748171,5.52365 C6.45587195,5.49346707 6.64295122,5.47837561 6.81453659,5.47837561 C7.55064634,5.47837561 7.93393902,5.76229634 8.12584146,6.00078171 C8.57951829,6.56447805 8.37229268,7.32392073 8.34728049,7.40867439 C7.90542683,8.95697805 7.50130488,10.3247878 7.14430488,11.531461 C6.74133537,12.8944012 6.3935122,14.0714146 6.13860976,15.0160195 C5.55436585,17.1824293 5.3774878,18.2451098 5.37565244,18.2558146 C5.27692683,18.6978537 5.28960366,18.9075646 5.30663415,18.9945317 C5.53302439,18.9457963 5.98589024,18.6549537 6.28582317,18.3927244 L8.31010366,16.7092415 L9.57240854,17.9505244 L9.26026829,18.2379061 Z" id="Path"></path>
                            <path d="M5.92933537,1.12040366 C6.36969512,0.507006098 7.06811585,0.125936585 7.75189634,0.125936585 C8.10684756,0.125936585 8.44131098,0.22735122 8.71960366,0.419113415 C9.54790854,0.992589024 9.66310976,2.23528049 8.9765122,3.18982561 C8.53568293,3.80354512 7.83709146,4.18461463 7.15331098,4.18461463 C6.79784756,4.18461463 6.46338415,4.08303902 6.18560366,3.89063293 C5.35781098,3.31574878 5.24290854,2.07337927 5.92933537,1.12040366 Z" id="Path"></path>
                            <path d="M4.55033537,7.59556707 C4.7957622,7.59556707 5.00815244,7.69179024 5.14973171,7.8662878 C5.39917073,8.1745561 5.40181707,8.68593537 5.15839634,9.5252622 C5.01434146,10.02155 4.85760976,10.5508378 4.69520122,11.1000866 C3.7204939,14.3949354 2.50740244,18.4953866 2.55089634,20.2513488 C2.56472561,20.8362939 2.7999939,21.0747793 3.36289634,21.0747793 C3.88221951,21.0747793 4.49932927,20.8535988 4.72490854,20.7553232 C4.85462195,20.6754793 5.51868293,20.2606049 6.25265854,19.6884171 C7.01877439,19.0916805 7.87810976,18.3334854 8.32841463,17.928511 L8.2582439,17.859211 L6.87655488,19.0083354 C6.66211585,19.1961939 5.8860122,19.8317659 5.25110366,19.8317659 C5.00098171,19.8317659 4.78125,19.7363476 4.63220122,19.5628159 C4.38792683,19.2787341 4.34891463,18.8157683 4.50846341,18.1055439 C4.51132317,18.0846171 4.68704878,17.0225805 5.2837561,14.8107354 C5.54121951,13.8565122 5.8904939,12.6754341 6.295,11.3080671 C6.65114634,10.1029634 7.05509756,8.73704512 7.49678049,7.18858049 C7.52964634,7.07271829 7.58496341,6.70158902 7.4217439,6.50113415 C7.27470122,6.32068049 6.91356098,6.2655061 6.39769512,6.34394146 C5.65343293,6.45742927 4.63053659,6.93737805 3.66197561,7.62780244 C2.72662195,8.29387927 1.98317073,9.03098659 1.58519512,9.46896098 L1.66940854,9.53970976 C2.3694939,8.84441585 3.73970122,7.59556707 4.55033537,7.59556707 Z" id="Fill-2"></path>
                            <path d="M7.75219512,0.957214634 C7.3567378,0.957214634 6.93789024,1.19851707 6.65895732,1.58699146 C6.24228659,2.16549756 6.2649939,2.91347073 6.708,3.2212561 C6.83438415,3.30914878 6.98458537,3.35345732 7.15296951,3.35345732 L7.15331098,3.35345732 C7.54864024,3.35345732 7.96778659,3.11215488 8.24706098,2.72404268 C8.66373171,2.14473171 8.64153659,1.39659756 8.19870122,1.09005976 C8.0709939,1.00188537 7.92096341,0.957214634 7.75219512,0.957214634 Z" id="Fill-1"></path>
                        </g>
                    </g>
                </g>
            </g>
        </g>
    </g>
</svg>