<?xml version="1.0" encoding="UTF-8"?>
<svg width="76px" height="76px" viewBox="0 0 76 76" version="1.1" xmlns="http://www.w3.org/2000/svg" xmlns:xlink="http://www.w3.org/1999/xlink">
    <!-- Generator: Sketch 50 (54983) - http://www.bohemiancoding.com/sketch -->
    <title>使命icon </title>
    <desc>Created with Sketch.</desc>
    <defs></defs>
    <g id="Page-1" stroke="none" stroke-width="1" fill="none" fill-rule="evenodd">
        <g id="妙链官网-公司简介-" transform="translate(-505.000000, -610.000000)">
            <g id="2" transform="translate(324.000000, 607.000000)">
                <g id="1" transform="translate(0.000000, 3.000000)">
                    <g id="使命icon-" transform="translate(181.000000, 0.000000)">
                        <circle id="Oval-3" fill="#F6FAFD" cx="38" cy="38" r="38"></circle>
                        <g id="Group-3" transform="translate(18.033898, 16.101695)">
                            <path d="M19.9661017,36.5868848 C16.7507864,37.613384 13.6079932,38.0381334 10.8047525,37.8619103 C13.2059661,41.510764 16.4211525,43.7394673 19.9661017,43.7394673 C23.5110508,43.7394673 26.7262373,41.510764 29.1274508,37.8619103 C26.3242102,38.0278969 23.1814169,37.613384 19.9661017,36.5868848 Z M19.9661017,7.2097254 C23.1814169,6.18322616 26.3242102,5.75847678 29.1274508,5.93469983 C26.7262373,2.28584615 23.5110508,0.0571429145 19.9661017,0.0571429145 C16.4211525,0.0571429145 13.2059661,2.28584615 10.8047525,5.93469983 C13.6079932,5.76871327 16.7507864,6.18322616 19.9661017,7.2097254 Z M7.33232542,14.5590039 C8.06398644,11.2422529 9.26955254,8.29790272 10.8153153,5.94480674 C6.47687458,6.21458349 2.95266441,7.90412195 1.1799322,10.9831014 C-0.5928,14.0721877 -0.283261017,17.9902999 1.66452881,21.908412 C2.90088136,19.3689861 4.83810847,16.8499035 7.33232542,14.5590039 Z M32.599878,29.2376063 C31.8682169,32.5543572 30.6626508,35.4987075 29.1168881,37.8518034 C33.4553288,37.5820267 36.979539,35.8924882 38.7522712,32.8135088 C40.5250034,29.7244224 40.2154644,25.8063103 38.2676746,21.8881982 C37.031322,24.4276241 35.0940949,26.9467066 32.599878,29.2376063 Z M38.2782373,21.8983051 C40.2154644,17.9902999 40.5250034,14.0615625 38.7628339,10.9724762 C36.9901017,7.88338983 33.4658915,6.19385137 29.1274508,5.93469983 C30.6732136,8.28779581 31.8787797,11.2316277 32.6104407,14.548897 C35.0940949,16.8499035 37.031322,19.3689861 38.2782373,21.8983051 Z M1.6539661,21.8983051 C-0.283261017,25.8063103 -0.5928,29.7350476 1.16936949,32.824134 C2.94210169,35.9132203 6.46631186,37.6027588 10.8047525,37.8619103 C9.25898983,35.5088144 8.05342373,32.5649824 7.32176271,29.2477132 C4.83810847,26.9467066 2.90088136,24.4276241 1.6539661,21.8983051 Z" id="Fill-4" fill="#D1EAFF"></path>
                            <path d="M32.599878,14.5590039 C31.8682169,11.2422529 30.6626508,8.29790272 29.1168881,5.94480674 C26.3141627,5.76871327 23.1814169,6.19385137 19.9560542,7.21983231 C16.740739,6.19385137 13.5974305,5.76871327 10.7947051,5.94480674 C9.24894237,8.29790272 8.04324746,11.2422529 7.31171525,14.5590039 C4.81736949,16.8499035 2.89070508,19.3792225 1.63335593,21.8983051 C2.89070508,24.4276241 4.81736949,26.9467066 7.31171525,29.2376063 C8.04324746,32.5543572 9.24894237,35.4987075 10.7947051,37.8518034 C13.5974305,38.0278969 16.7301763,37.6027588 19.9560542,36.5767779 C23.1708542,37.6027588 26.3141627,38.0278969 29.1168881,37.8518034 C30.6626508,35.4987075 31.8682169,32.5543572 32.599878,29.2376063 C35.0940949,26.9467066 37.0207593,24.4173876 38.2782373,21.8983051 C37.031322,19.3689861 35.0940949,16.8499035 32.599878,14.5590039 Z" id="Fill-5" fill="#0B85EF"></path>
                            <path d="M14.8753898,21.8983051 C14.8753898,24.4574265 16.9329288,26.5321938 19.4714576,26.5321938 C22.0099864,26.5321938 24.0675254,24.4574265 24.0675254,21.8983051 C24.0675254,20.2427155 23.1914644,18.7130735 21.7694915,17.8854731 C20.3475186,17.0580022 18.5953966,17.0580022 17.1734237,17.8854731 C15.7514508,18.7130735 14.8753898,20.2427155 14.8753898,21.8983051 Z" id="Fill-6" fill="#D1EAFF"></path>
                        </g>
                    </g>
                </g>
            </g>
        </g>
    </g>
</svg>