<?xml version="1.0" encoding="UTF-8"?>
<svg width="52px" height="75px" viewBox="0 0 52 75" version="1.1" xmlns="http://www.w3.org/2000/svg" xmlns:xlink="http://www.w3.org/1999/xlink">
    <!-- Generator: Sketch 50 (54983) - http://www.bohemiancoding.com/sketch -->
    <title>底部logo</title>
    <desc>Created with Sketch.</desc>
    <defs></defs>
    <g id="Page-1" stroke="none" stroke-width="1" fill="none" fill-rule="evenodd">
        <g id="妙链官网-团队介绍" transform="translate(-657.000000, -2060.000000)">
            <g id="底部logo" transform="translate(657.000000, 2060.000000)">
                <path d="M39.6540819,28.5391424 C40.2458949,28.9341529 40.9089478,29.2483597 41.6478854,29.473149 C44.8689829,30.4530267 47.2015026,30.7220544 51.7877065,29.9372378 C51.3811066,31.0705463 43.4323069,33.8903684 39.0943914,32.3113719 C38.6759518,32.1590603 38.2790838,31.9934347 37.9026774,31.8160094 C34.217635,37.422105 27.858691,41.1251613 20.6319348,41.1251613 C9.23723183,41.1251613 0,31.9189804 0,20.5625806 C0,9.20618094 9.23723183,0 20.6319348,0 C32.0266377,0 41.2638695,9.20618094 41.2638695,20.5625806 C41.2638695,23.3911737 40.6908078,26.0863709 39.6540819,28.5391424 Z M39.6540819,28.5391424 C38.2300123,27.5886354 37.2184353,26.1702594 36.5546355,24.4040298 C34.0563585,17.7566475 37.262516,7.410003 35.6697273,6.55704876 C34.0769387,5.70409452 28.4734387,18.6612109 24.8915538,21.7724355 C21.3096689,24.8836602 24.8265597,7.35588073 22.3141376,11.3144437 C19.8017155,15.2730066 15.2232435,34.1678677 2.27438651,29.9372378 C12.8829492,37.0452862 19.8017155,22.4425639 19.8017155,22.813276 C19.8017155,23.5426584 20.5173233,29.473149 23.651399,27.9998699 C26.7854747,26.5265907 30.2896475,20.115244 30.9940797,19.2513569 C30.9940797,20.5954885 30.6488723,28.396811 37.9026774,31.8160094 C38.5807684,30.7844222 39.1683218,29.6883935 39.6540819,28.5391424 Z" id="Combined-Shape-Copy" fill="#0B85EF"></path>
                <path d="M39.6540819,28.5391424 C39.1683218,29.6883935 38.5807684,30.7844222 37.9026751,31.816013 C30.6488723,28.396811 30.9940797,20.5954885 30.9940797,19.2513569 C30.2896475,20.115244 26.7854747,26.5265907 23.651399,27.9998699 C20.5173233,29.473149 19.8017155,23.5426584 19.8017155,22.813276 C19.8017155,22.4425639 12.8829492,37.0452862 2.27438651,29.9372378 C15.2232435,34.1678677 19.8017155,15.2730066 22.3141376,11.3144437 C24.8265597,7.35588073 21.3096689,24.8836602 24.8915538,21.7724355 C28.4734387,18.6612109 34.0769387,5.70409452 35.6697273,6.55704876 C37.262516,7.410003 34.0563585,17.7566475 36.5546355,24.4040298 C37.2184353,26.1702594 38.2300123,27.5886354 39.6540819,28.5391424 Z" id="Combined-Shape-Copy-7" fill="#FFFFFF"></path>
                <g id="字体" transform="translate(5.687500, 48.455408)" fill="#FFFFFF">
                    <path d="M0,3.70960614 L0,2.04387097 L0.954305173,2.04387097 L0.954305173,0.0793207224 L2.94244095,0.0793207224 L2.94244095,2.04387097 L6.0350966,2.04387097 C6.52310419,2.04387097 6.9187125,2.43789724 6.9187125,2.92395327 L6.9187125,7.93207224 C6.9187125,10.9991555 6.28251542,13.3523134 5.01010216,14.9916165 C5.54027435,15.6261855 6.20297965,16.181425 6.99823794,16.6573517 L6.99823794,18.3230869 C5.68183694,17.7113276 4.58374888,16.9614165 3.81722069,16.2607481 C2.91592797,16.9481978 1.91492548,17.6356372 0,18.3230869 L0,16.6573565 C0.954309945,16.1814298 2.06765803,15.6261855 2.70386466,14.9916165 C1.48446862,13.3523134 0.901287954,10.9991555 0.954305173,7.93207224 L0.954305173,3.70960614 L0,3.70960614 Z M7.75752711,18.3230917 L7.75752711,16.6573565 C11.7868358,14.9122919 14.3675885,12.4269309 15.5869845,8.88392091 L17.0979677,8.88392091 C15.71952,7.45614077 14.9507818,5.07654289 14.7917302,1.74505589 L16.779866,1.74505589 C16.8328832,4.70637767 17.4160638,6.92733569 18.5294254,8.40799658 L18.5294254,10.2323732 L17.7341711,9.51848669 C16.249689,13.7489464 12.9659438,16.6573565 7.75752711,18.3230917 Z M11.7697638,11.5015048 L11.7697638,0 L13.9964759,0.440041151 L13.9964759,11.5015048 L11.7697638,11.5015048 Z M3.89674612,13.3258814 C4.53295275,12.0567435 4.8510513,10.285265 4.8510513,8.01139296 L4.8510513,3.77445244 L2.94244095,3.77445244 L2.94244095,8.01139296 C2.94244095,10.285265 3.26053949,12.0567435 3.89674612,13.3258814 Z M7.39586509,10.4703354 L7.39586509,8.56663802 C8.45620947,6.9273349 9.01288192,4.65349692 9.06589914,1.74505589 L10.9745095,1.74505589 C10.9214923,5.81687334 9.72862273,8.72527074 7.39586509,10.4703354 Z M30.2991892,3.56943251 L30.2991892,1.98301806 L32.4463759,1.98301806 L32.7644776,0 L35.1502405,0 C34.9381717,0.687449698 34.7526142,1.34844911 34.5935625,1.98301806 L38.6493595,1.98301806 L38.6493595,3.56943251 L34.1164099,3.56943251 C33.639255,4.99721265 33.0825825,6.2927715 32.4463759,7.45614791 L33.8880416,7.45614791 L33.8880416,4.67992262 L36.1045457,4.67992262 L36.1045457,7.45614791 L38.6493595,7.45614791 L38.6493595,9.04256236 L36.1045457,9.04256236 L36.1045457,10.9682956 L38.6581957,10.9682956 L38.6581957,12.5547101 L36.1045457,12.5547101 L36.1045457,15.7848238 L33.8880416,15.7848238 L33.8880416,12.5547101 L30.2991892,12.5547101 L30.2991892,10.9682956 L33.8880416,10.9682956 L33.8880416,9.04256236 L30.5377655,9.04256236 L30.5377655,7.45614791 C31.1209549,6.18701 31.624611,4.89145116 32.0487487,3.56943251 L30.2991892,3.56943251 Z M27.3567483,17.4430094 L27.3567483,7.29794793 L26.2433923,7.29794793 L26.2433923,5.72119736 L28.620319,5.72119736 C29.1083266,5.72119736 29.5039349,6.11522363 29.5039349,6.60127966 L29.5039349,15.2769851 C29.5039349,16.4558932 29.6085891,16.7366772 30.8699708,16.7366772 L39.8129239,16.7366772 L40.2547319,18.3230917 L28.2403642,18.3230917 C27.7523566,18.3230917 27.3567483,17.9290654 27.3567483,17.4430094 Z M20.7561375,7.29750646 L20.7561375,5.71109201 L25.7662397,5.71109201 L25.7662397,7.29750646 L24.3347819,7.29750646 L24.3347819,10.1530525 L26.0843414,10.1530525 L26.0843414,11.7394669 L24.3347819,11.7394669 L24.3347819,15.7388952 C24.8649541,15.4744914 25.3686101,15.1572117 25.8457651,14.7870465 L25.8457651,16.4527817 C25.2777288,16.9298967 24.1789021,17.5493976 22.5492849,18.3112843 L22.5493436,18.3114099 C22.3942552,18.3839176 22.209752,18.3169727 22.1372443,18.1618842 C22.118029,18.1207843 22.1080698,18.0759674 22.1080698,18.0305974 L22.1080698,11.7394669 L20.4380358,11.7394669 L20.4380358,10.1530525 L22.1080698,10.1530525 L22.1080698,7.29750646 L20.7561375,7.29750646 Z M20.3585104,5.15584696 L20.3585104,3.8867154 C21.4188547,3.09350421 22.0285436,1.82438534 22.1875953,0.0793207224 L24.3347819,0.0793207224 C24.2817647,0.766770421 24.1227154,1.40132985 23.8576293,1.98301806 L26.0096415,1.98301806 L26.0096415,3.56943251 L22.9828496,3.56943251 C22.346643,4.30976295 21.471872,4.83856248 20.3585104,5.15584696 Z M27.5157992,4.28331901 C27.3567475,2.96130036 26.9856325,1.66574152 26.4024431,0.396603612 L28.231528,0.396603612 C28.9207519,1.66574152 29.3713915,2.96130036 29.5834604,4.28331901 L27.5157992,4.28331901 Z" id="妙链科技"></path>
                    <g id="英文" transform="translate(0.259734, 20.238378)">
                        <path d="M26.9652776,5.43822581 L26.9652776,0.185806452 L27.7541353,0.185806452 L27.7541353,5.43822581 L26.9652776,5.43822581 Z M33.420902,4.98456774 L33.420902,3.65094194 L32.4957156,3.65094194 C31.8018223,3.65094194 31.4548809,3.88087512 31.4548809,4.34074839 C31.4548809,4.75463433 31.7709831,4.96923863 32.4031969,4.98456774 L33.420902,4.98456774 Z M32.5419749,3.12209032 L33.420902,3.12209032 C33.4517417,2.50892597 33.1510591,2.21767727 32.5188452,2.24833548 C31.9945703,2.23300637 31.6476289,2.46293956 31.4780105,2.93814194 L30.8535097,2.93814194 C31.0385479,2.14102827 31.601364,1.75014186 32.5419749,1.76547097 C33.5288453,1.76547097 34.0145633,2.18701514 33.9991434,3.03011613 L33.9991434,5.15758398 C33.9991434,5.32870846 33.8604196,5.46743226 33.6892952,5.46743226 L32.3800673,5.46743226 C31.377777,5.45210315 30.8689296,5.09187449 30.8535097,4.38673548 C30.8535097,3.54363449 31.4163258,3.12209032 32.5419749,3.12209032 Z M34.7624222,5.43822581 L34.7624222,1.73419355 L35.5719603,1.73419355 L35.5719603,5.43822581 L34.7624222,5.43822581 Z M34.7624222,1.38611613 L34.7624222,0.650322581 L35.5719603,0.650322581 L35.5719603,1.38611613 L34.7624222,1.38611613 Z" id="Chain"></path>
                        <path d="M26.3357729,1.73419355 L25.5818079,1.73419355 C25.3144511,1.07602153 24.8070011,0.631742692 24.2249932,0.631742692 C23.3647805,0.631742692 22.6674403,1.60227381 22.6674403,2.79948463 C22.6674403,3.99669544 23.3647805,4.96722656 24.2249932,4.96722656 C24.7959796,4.96722656 25.2952052,4.53961504 25.5663619,3.90193548 L26.310898,3.90193548 C25.9383623,4.79839073 25.1304683,5.41935295 24.1938459,5.41935295 C22.9035269,5.41935295 21.8575167,4.24085087 21.8575167,2.78709488 C21.8575167,1.3333389 22.9035269,0.15483682 24.1938459,0.15483682 C25.1518906,0.15483682 25.9752512,0.804529118 26.3357729,1.73419355 Z" id="Combined-Shape"></path>
                        <path d="M0.0280157746,3.89654626 L0.854481222,3.90193548 C0.854481222,4.22173004 1.29762413,4.83096774 2.02742902,4.83096774 C2.82926123,4.81563863 3.26368447,4.64059646 3.27910432,4.05809032 C3.27910432,3.56755884 2.87819423,3.26098126 2.07636202,3.13834839 C0.7502549,2.93906997 0.132871382,2.31695829 0.194550783,1.53517374 C0.225390483,0.661414529 0.840100557,0.216877039 2.02742902,0.20154793 C3.13765823,0.20154793 3.77605708,0.753130579 3.99193498,1.73419355 L3.20552656,1.73419355 C3.02048835,1.10570008 2.69328895,0.72377019 2.07649495,0.72377019 C1.42886124,0.72377019 1.04827351,0.998654925 1.03285366,1.53517374 C1.00201396,1.97971789 1.33569142,2.42785091 2.14575099,2.49452903 C3.47185811,2.70913656 4.12719191,3.21498956 4.11177206,4.01210323 C4.09635221,4.96250798 3.35565862,5.49198133 2.07649495,5.43822581 C0.572850543,5.37503672 0.194550783,4.42037344 0.0280157746,3.89654626 Z M4.75940253,5.43822581 L4.75940253,1.73574194 L8.93601502,1.73574194 C9.78205592,1.72172423 10.1860043,2.05063126 10.1717429,2.80203777 L10.1717429,5.43822581 L9.3622048,5.43822581 L9.3622048,2.98480724 C9.37762465,2.47894664 9.23657991,2.35354839 8.68146531,2.35354839 L7.85877692,2.35354839 L7.85877692,5.43822581 L7.07236849,5.43822581 L7.07236849,2.89470889 C7.07236849,2.45016473 6.9700918,2.35656774 6.50749629,2.35656774 L5.56894062,2.35656774 L5.56894062,5.43822581 L4.75940253,5.43822581 Z M13.3636359,4.95483871 L13.3636359,3.6212129 L12.4384495,3.6212129 C11.7445563,3.6212129 11.3976148,3.85114609 11.3976148,4.31101935 C11.3976148,4.7249053 11.713717,4.9395096 12.3459309,4.95483871 L13.3636359,4.95483871 Z M12.4847088,3.09236129 L13.3636359,3.09236129 C13.3944756,2.47919693 13.093793,2.18794823 12.4615792,2.21860645 C11.9373043,2.20327734 11.5903629,2.43321053 11.4207445,2.9084129 L10.7962437,2.9084129 C10.9812819,2.11129924 11.544098,1.72041283 12.4847088,1.73574194 C13.4715793,1.73574194 13.9572973,2.15728611 13.9418774,3.0003871 L13.9418774,5.12785495 C13.9418774,5.29897943 13.8031536,5.43770323 13.6320291,5.43770323 L12.3228012,5.43770323 C11.320511,5.42237412 10.8116635,5.06214546 10.7962437,4.35700645 C10.7962437,3.51390546 11.3590598,3.09236129 12.4847088,3.09236129 Z M14.7051562,5.41470968 L14.7051562,2.844549 C14.7051562,2.14946696 15.0245947,1.73523028 15.7999705,1.73523028 L17.0763419,1.73522834 L17.0763419,2.34660894 L16.0715477,2.34660894 C15.7138449,2.34660894 15.5146943,2.55165668 15.5146943,2.92707605 L15.5146943,5.41470968 L14.7051562,5.41470968 Z M17.3419374,2.35354839 L17.3419374,1.7460389 L17.9433085,1.7460389 L17.9433085,0.680140863 L18.7528466,0.680140863 L18.7528466,1.7460389 L19.539255,1.7460389 L19.539255,2.35354839 L18.7528466,2.35354839 L18.7528466,4.40299355 C18.7374268,4.75556305 18.8762033,4.92418072 19.1691805,4.90885161 C19.3079591,4.90885161 19.4544455,4.86286498 19.608644,4.77089032 L19.608644,5.18477419 C19.4236058,5.35339439 19.2295577,5.43822581 18.7903473,5.43822581 C18.227096,5.43822581 17.9433085,5.28431758 17.9433085,4.47197419 L17.9433085,2.35354839 L17.3419374,2.35354839 Z" id="Smart"></path>
                        <path d="M26.9667176,1.73417809 L28.8303641,1.73417809 C29.676405,1.72016039 30.0803533,2.04906741 30.0660919,2.80047392 L30.0660919,5.43666196 L29.2565539,5.43666196 L29.2565539,2.98324339 C29.2719737,2.4773828 29.130929,2.35198454 28.5758144,2.35198454 L27.753126,2.35198454 L27.753126,5.43666196 L26.9667176,5.43666196 L26.9667176,1.73417809 Z" id="Path-Copy"></path>
                        <path d="M36.3119276,1.74962262 L38.1755742,1.74962262 C39.0216151,1.73560492 39.4255634,2.06451194 39.411302,2.81591845 L39.411302,5.45210649 L38.6017639,5.45210649 L38.6017639,2.99868792 C38.6171838,2.49282733 38.4761391,2.36742907 37.9210245,2.36742907 L37.0983361,2.36742907 L37.0983361,5.45210649 L36.3119276,5.45210649 L36.3119276,1.74962262 Z" id="Path-Copy-2"></path>
                    </g>
                </g>
            </g>
        </g>
    </g>
</svg>