<?xml version="1.0" encoding="UTF-8"?>
<svg width="102px" height="45px" viewBox="0 0 102 45" version="1.1" xmlns="http://www.w3.org/2000/svg" xmlns:xlink="http://www.w3.org/1999/xlink">
    <!-- Generator: Sketch 50 (54983) - http://www.bohemiancoding.com/sketch -->
    <title>logo</title>
    <desc>Created with Sketch.</desc>
    <defs></defs>
    <g id="Page-1" stroke="none" stroke-width="1" fill="none" fill-rule="evenodd">
        <g id="妙链官网-团队介绍" transform="translate(-84.000000, -19.000000)" fill="#FFFFFF">
            <g id="logo" transform="translate(84.000000, 19.000000)">
                <path d="M42.5479695,31.1811588 C43.1829721,31.6127375 43.8944135,31.9560321 44.6872774,32.2016314 C48.1434451,33.2722214 50.6461882,33.5661544 55.5670855,32.7086832 C55.1308126,33.946908 46.601923,37.0277756 41.9474337,35.3026032 C41.4984571,35.1361914 41.0726264,34.9552329 40.6687505,34.7613825 C36.71478,40.8864635 29.8917711,44.9323308 22.1376184,44.9323308 C9.91134934,44.9323308 -9.30810984e-13,34.873886 -9.30810984e-13,22.4661654 C-9.30810984e-13,10.0584449 9.91134934,0 22.1376184,0 C34.3638874,0 44.2752367,10.0584449 44.2752367,22.4661654 C44.2752367,25.556616 43.6603539,28.5013216 42.5479695,31.1811588 Z M42.5479695,31.1811588 C41.0199738,30.1426585 39.9345736,28.5929761 39.2223308,26.6632375 C36.5417338,19.4004725 39.9818712,8.09598542 38.2728435,7.16406878 C36.5638158,6.23215214 30.5513819,20.388776 26.7080972,23.7880229 C22.8648124,27.1872697 26.6383599,8.03685277 23.9425855,12.3618804 C21.2468111,16.686908 16.33421,37.3309644 2.44036738,32.7086832 C13.823125,40.4747606 21.2468111,24.5201885 21.2468111,24.9252193 C21.2468111,25.7221244 22.0146427,32.2016314 25.377438,30.5919631 C28.7402332,28.9822948 32.5001345,21.9774165 33.255975,21.0335548 C33.255975,22.5021197 32.885575,31.0256511 40.6687505,34.7613825 C41.3963275,33.6342959 42.0267595,32.4368021 42.5479695,31.1811588 Z" id="Combined-Shape-Copy"></path>
                <g id="字体" transform="translate(58.559563, 9.336760)">
                    <path d="M0,4.05302362 L0,2.23308271 L1.02394875,2.23308271 L1.02394875,0.0866638532 L3.1571753,0.0866638532 L3.1571753,2.23308271 L6.47552772,2.23308271 C6.99914927,2.23308271 7.42362841,2.66358603 7.42362841,3.19463879 L7.42362841,8.66638532 C7.42362841,12.0174044 6.74100274,14.5884063 5.37573092,16.3794683 C5.94459417,17.0727825 6.65566258,17.6794235 7.50895747,18.1994092 L7.50895747,20.0193501 C6.09648776,19.3509571 4.9182631,18.5316228 4.09579498,17.7660899 C3.12872744,18.5171804 2.05467349,19.2682596 0,20.0193501 L0,18.1994144 C1.02395387,17.6794287 2.2185522,17.0727825 2.90118811,16.3794683 C1.59280262,14.5884063 0.96706242,12.0174044 1.02394875,8.66638532 L1.02394875,4.05302362 L0,4.05302362 Z M8.32365828,20.0193553 L8.32365828,18.1994144 C12.647019,16.2928001 15.4161107,13.5773564 16.7244962,9.70635156 L18.3457484,9.70635156 C16.8667039,8.1463944 16.0418645,5.54650481 15.8712056,1.90660477 L18.0044321,1.90660477 C18.0613184,5.14207147 18.6870586,7.56863509 19.8816715,9.18636844 L19.8816715,11.1796371 L19.0283809,10.3996624 C17.4355637,15.0217577 13.9121764,18.1994144 8.32365828,20.0193553 Z M12.6287012,12.5662587 L12.6287012,0 L15.0179149,0.480778043 L15.0179149,12.5662587 L12.6287012,12.5662587 Z M4.18112405,14.5595273 C4.86375996,13.1728988 5.20507279,11.2374254 5.20507279,8.75304917 L5.20507279,4.12387309 L3.1571753,4.12387309 L3.1571753,8.75304917 C3.1571753,11.2374254 3.49848813,13.1728988 4.18112405,14.5595273 Z M7.93560278,11.4396286 L7.93560278,9.35969615 C9.0733293,7.56863423 9.67062676,5.08429528 9.72751308,1.90660477 L11.7754106,1.90660477 C11.7185243,6.35537148 10.4386011,9.53301432 7.93560278,11.4396286 Z M32.5103727,3.89987339 L32.5103727,2.16659633 L34.8142574,2.16659633 L35.1555736,0 L37.7154455,0 C37.4879002,0.751090483 37.288801,1.47328204 37.118142,2.16659633 L41.4699242,2.16659633 L41.4699242,3.89987339 L36.6061677,3.89987339 C36.0941907,5.45983055 35.4968933,6.875326 34.8142574,8.1464022 L36.3611334,8.1464022 L36.3611334,5.11316734 L38.7393942,5.11316734 L38.7393942,8.1464022 L41.4699242,8.1464022 L41.4699242,9.87967927 L38.7393942,9.87967927 L38.7393942,11.9836877 L41.4794052,11.9836877 L41.4794052,13.7169647 L38.7393942,13.7169647 L38.7393942,17.2461068 L36.3611334,17.2461068 L36.3611334,13.7169647 L32.5103727,13.7169647 L32.5103727,11.9836877 L36.3611334,11.9836877 L36.3611334,9.87967927 L32.7663599,9.87967927 L32.7663599,8.1464022 C33.3921094,6.75977362 33.9325214,5.34427817 34.387612,3.89987339 L32.5103727,3.89987339 Z M29.3531974,19.0577992 L29.3531974,7.97355684 L28.1585905,7.97355684 L28.1585905,6.25083828 L30.7089814,6.25083828 C31.2326029,6.25083828 31.6570821,6.6813416 31.6570821,7.21239436 L31.6570821,16.6912548 C31.6570821,17.9793007 31.7693737,18.2860783 33.1228089,18.2860783 L42.7184036,18.2860783 L43.1924539,20.0193553 L30.3012981,20.0193553 C29.7776765,20.0193553 29.3531974,19.588852 29.3531974,19.0577992 Z M22.2708852,7.9730745 L22.2708852,6.23979743 L27.6466161,6.23979743 L27.6466161,7.9730745 L26.110693,7.9730745 L26.110693,11.0929732 L27.9879324,11.0929732 L27.9879324,12.8262503 L26.110693,12.8262503 L26.110693,17.1959264 C26.6795563,16.9070454 27.2199683,16.5603934 27.7319452,16.1559601 L27.7319452,17.975901 C27.1231991,18.4965483 25.946317,19.1723829 24.2012989,20.003405 L24.2012569,20.0033168 C24.0339576,20.082989 23.8337477,20.0119532 23.7540755,19.8446539 C23.7326152,19.7995906 23.7214793,19.750307 23.7214793,19.7003946 L23.7214793,12.8262503 L21.929569,12.8262503 L21.929569,11.0929732 L23.7214793,11.0929732 L23.7214793,7.9730745 L22.2708852,7.9730745 Z M21.8442399,5.63315046 L21.8442399,4.24652881 C22.9819664,3.37988594 23.6361494,1.99327816 23.8068083,0.0866638532 L26.110693,0.0866638532 C26.0538067,0.837754337 25.8831503,1.53105823 25.5987186,2.16659633 L27.907781,2.16659633 L27.907781,3.89987339 L24.660099,3.89987339 C23.9774631,4.70874007 23.0388528,5.28649331 21.8442399,5.63315046 Z M29.5238555,4.67984807 C29.3531965,3.2354433 28.9549982,1.81994785 28.3292486,0.433319266 L30.2918171,0.433319266 C31.0313393,1.81994785 31.5148658,3.2354433 31.7424111,4.67984807 L29.5238555,4.67984807 Z" id="妙链科技"></path>
                    <g id="英文" transform="translate(0.278689, 22.994302)">
                        <path d="M28.9331578,5.94167058 L28.9331578,0.203007519 L29.7795851,0.203007519 L29.7795851,5.94167058 L28.9331578,5.94167058 Z M35.8599027,5.44601504 L35.8599027,3.98892857 L34.8671978,3.98892857 C34.1226654,3.98892857 33.7504047,4.24014786 33.7504047,4.74259398 C33.7504047,5.19479549 34.0895755,5.42926683 34.7679273,5.44601504 L35.8599027,5.44601504 Z M34.916833,3.41111842 L35.8599027,3.41111842 C35.892993,2.74119026 35.5703671,2.42297916 34.8920154,2.45647556 C34.3294798,2.43972736 33.9572192,2.69094665 33.7752224,3.21014098 L33.1051465,3.21014098 C33.3036885,2.33923437 33.907578,1.91216157 34.916833,1.92890977 C35.9757236,1.92890977 36.4968884,2.38947848 36.4803433,3.3106297 L36.4803433,5.63796483 C36.4803433,5.82332043 36.3300829,5.97358083 36.1447273,5.97358083 L34.7431097,5.97358083 C33.6676739,5.95683262 33.1216917,5.56325573 33.1051465,4.79283835 C33.1051465,3.87168712 33.709036,3.41111842 34.916833,3.41111842 Z M37.2993248,5.94167058 L37.2993248,1.89473684 L38.1679416,1.89473684 L38.1679416,5.94167058 L37.2993248,5.94167058 Z M37.2993248,1.51443609 L37.2993248,0.710526316 L38.1679416,0.710526316 L38.1679416,1.51443609 L37.2993248,1.51443609 Z" id="Chain"></path>
                        <path d="M28.2577129,1.89473684 L27.4487248,1.89473684 C27.1618568,1.17563443 26.617374,0.69022639 25.9928921,0.69022639 C25.0699026,0.69022639 24.3216717,1.75060461 24.3216717,3.05864744 C24.3216717,4.36669027 25.0699026,5.4270685 25.9928921,5.4270685 C26.6055482,5.4270685 27.1412064,4.95987075 27.4321516,4.26315789 L28.2310227,4.26315789 C27.8313,5.24260265 26.9644472,5.92105057 25.9594718,5.92105057 C24.5749875,5.92105057 23.4526412,4.63344844 23.4526412,3.04511072 C23.4526412,1.456773 24.5749875,0.169170867 25.9594718,0.169170867 C26.987433,0.169170867 27.870881,0.879008552 28.2577129,1.89473684 Z" id="Combined-Shape"></path>
                        <path d="M0.0300603183,4.25726976 L0.916839812,4.26315789 C0.916839812,4.61255749 1.39232254,5.27819549 2.17538735,5.27819549 C3.03573592,5.26144728 3.50186262,5.07020055 3.51840779,4.4337688 C3.51840779,3.89782627 3.08823996,3.56286721 2.22789139,3.42888158 C0.80500723,3.21115493 0.14256811,2.53145114 0.208748769,1.67729273 C0.241839099,0.722645103 0.90140967,0.236954471 2.17538735,0.220206267 C3.36663921,0.220206267 4.05162732,0.822851783 4.28325963,1.89473684 L3.43946045,1.89473684 C3.24091847,1.20806048 2.88984061,0.790773351 2.22803403,0.790773351 C1.53313711,0.790773351 1.12477473,1.09110559 1.10822956,1.67729273 C1.07513924,2.16299065 1.43316791,2.65260966 2.30234426,2.72546053 C3.72522843,2.95993538 4.42838738,3.51261783 4.41184221,4.38352444 C4.39529705,5.42191309 3.6005489,6.00040253 2.22803403,5.94167058 C0.614656204,5.87263175 0.208748769,4.82959034 0.0300603183,4.25726976 Z M5.10673566,5.94167058 L5.10673566,1.89642857 L9.58815024,1.89642857 C10.4959338,1.88111318 10.9293616,2.24046883 10.9140594,3.06143694 L10.9140594,5.94167058 L10.0454426,5.94167058 L10.0454426,3.26112633 C10.0619878,2.70843559 9.91064985,2.57142857 9.31502392,2.57142857 L8.43229713,2.57142857 L8.43229713,5.94167058 L7.58849795,5.94167058 L7.58849795,3.16268711 C7.58849795,2.67698919 7.47875727,2.57472744 6.98240233,2.57472744 L5.97535246,2.57472744 L5.97535246,5.94167058 L5.10673566,5.94167058 Z M14.3388914,5.41353383 L14.3388914,3.95644737 L13.3461865,3.95644737 C12.6016541,3.95644737 12.2293934,4.20766666 12.2293934,4.71011278 C12.2293934,5.16231429 12.5685642,5.39678563 13.246916,5.41353383 L14.3388914,5.41353383 Z M13.3958217,3.37863722 L14.3388914,3.37863722 C14.3719817,2.70870906 14.0493559,2.39049795 13.3710041,2.42399436 C12.8084685,2.40724616 12.4362079,2.65846545 12.2542111,3.17765977 L11.5841352,3.17765977 C11.7826772,2.30675316 12.3865667,1.87968037 13.3958217,1.89642857 C14.4547123,1.89642857 14.9758771,2.35699727 14.959332,3.2781485 L14.959332,5.60548362 C14.959332,5.79083922 14.8090716,5.94109962 14.623716,5.94109962 L13.2220984,5.94109962 C12.1466627,5.92435142 11.6006804,5.53077453 11.5841352,4.76035714 C11.5841352,3.83920592 12.1880247,3.37863722 13.3958217,3.37863722 Z M15.7783135,5.91597744 L15.7783135,3.10788366 C15.7783135,2.34845427 16.1210641,1.89586955 16.9530255,1.89586955 L18.3225444,1.89586743 L18.3225444,2.56384671 L17.244422,2.56384671 C16.8606146,2.56384671 16.6469303,2.78787677 16.6469303,3.19805067 L16.6469303,5.91597744 L15.7783135,5.91597744 Z M18.6075225,2.57142857 L18.6075225,1.90767878 L19.2527807,1.90767878 L19.2527807,0.743105031 L20.1213975,0.743105031 L20.1213975,1.90767878 L20.9651967,1.90767878 L20.9651967,2.57142857 L20.1213975,2.57142857 L20.1213975,4.8106015 C20.1048524,5.1958102 20.2537566,5.38003768 20.5681148,5.36328947 C20.7170212,5.36328947 20.8741979,5.31304562 21.0396496,5.21255639 L21.0396496,5.66475564 C20.8411076,5.84898588 20.6328982,5.94167058 20.161635,5.94167058 C19.5572785,5.94167058 19.2527807,5.77351427 19.2527807,4.88596805 L19.2527807,2.57142857 L18.6075225,2.57142857 Z" id="Smart"></path>
                        <path d="M28.9347029,1.89471995 L30.9343551,1.89471995 C31.8421387,1.87940456 32.2755665,2.23876021 32.2602643,3.05972832 L32.2602643,5.93996196 L31.3916475,5.93996196 L31.3916475,3.25941771 C31.4081927,2.70672697 31.2568548,2.56971995 30.6612288,2.56971995 L29.778502,2.56971995 L29.778502,5.93996196 L28.9347029,5.93996196 L28.9347029,1.89471995 Z" id="Path-Copy"></path>
                        <path d="M38.9619105,1.91159426 L40.9615628,1.91159426 C41.8693463,1.89627887 42.3027742,2.25563453 42.287472,3.07660263 L42.287472,5.95683628 L41.4188552,5.95683628 L41.4188552,3.27629202 C41.4354004,2.72360129 41.2840624,2.58659426 40.6884365,2.58659426 L39.8057097,2.58659426 L39.8057097,5.95683628 L38.9619105,5.95683628 L38.9619105,1.91159426 Z" id="Path-Copy-2"></path>
                    </g>
                </g>
            </g>
        </g>
    </g>
</svg>