<?xml version="1.0" encoding="UTF-8"?>
<svg width="20px" height="20px" viewBox="0 0 20 20" version="1.1" xmlns="http://www.w3.org/2000/svg" xmlns:xlink="http://www.w3.org/1999/xlink">
    <!-- Generator: Sketch 50 (54983) - http://www.bohemiancoding.com/sketch -->
    <title>t-touch </title>
    <desc>Created with Sketch.</desc>
    <defs></defs>
    <g id="Page-1" stroke="none" stroke-width="1" fill="none" fill-rule="evenodd">
        <g id="状态" transform="translate(-192.000000, -638.000000)">
            <g id="t-touch-" transform="translate(192.000000, 638.000000)">
                <circle id="Oval" fill="#D6D6FF" cx="10" cy="10" r="10"></circle>
                <path d="M15.2783449,7.84639705 C15.2783449,7.73708989 15.2763484,7.62873483 15.2713841,7.52138477 C15.7486079,7.17280783 16.1624825,6.73653126 16.4900208,6.23723051 C16.0519181,6.4302173 15.581763,6.55925424 15.0874878,6.6133921 C15.5918806,6.30914103 15.9786671,5.82266727 16.1615382,5.23862899 C15.6892787,5.51934186 15.1668362,5.72018353 14.6113432,5.82462438 C14.1662527,5.32820639 13.5312763,5.01208043 12.8290655,5.00031133 C11.4808974,4.978598 10.3877991,6.09539302 10.3877991,7.49483156 C10.3877991,7.69371612 10.4088705,7.88678226 10.4511214,8.07286627 C8.42076173,7.94486078 6.6214326,6.90886262 5.41787781,5.34690471 C5.20791875,5.72121498 5.08737172,6.15841721 5.08737172,6.62722409 C5.08737172,7.51352988 5.5182977,8.30137194 6.1733203,8.76615882 C5.7725041,8.74849195 5.39677938,8.62929345 5.06721759,8.43434955 L5.06721759,8.46677408 C5.06721759,9.70567681 5.90910429,10.7437379 7.02624186,10.9859962 C6.82135506,11.0431226 6.60529851,11.0726644 6.3833603,11.0716329 C6.22558074,11.0706015 6.07287343,11.0538603 5.92415918,11.0223614 C6.23464605,12.0377041 7.13677929,12.7792632 8.20470518,12.8039386 C7.36886201,13.4834256 6.31601799,13.889129 5.17273672,13.8862198 C4.97586301,13.8862198 4.7808779,13.8734192 4.59002075,13.8497488 C5.671005,14.5765502 6.95393522,14.9999998 8.33329228,14.9999998 C12.8230489,15.0010312 15.2783449,11.1700967 15.2783449,7.84639705 Z" id="Fill-1" fill="#212124"></path>
            </g>
        </g>
    </g>
</svg>