<?xml version="1.0" encoding="UTF-8"?>
<svg width="20px" height="20px" viewBox="0 0 20 20" version="1.1" xmlns="http://www.w3.org/2000/svg" xmlns:xlink="http://www.w3.org/1999/xlink">
    <!-- Generator: Sketch 50 (54983) - http://www.bohemiancoding.com/sketch -->
    <title>w-touch</title>
    <desc>Created with Sketch.</desc>
    <defs></defs>
    <g id="Page-1" stroke="none" stroke-width="1" fill="none" fill-rule="evenodd">
        <g id="状态" transform="translate(-242.000000, -638.000000)">
            <g id="w-touch" transform="translate(242.000000, 638.000000)">
                <circle id="Oval" fill="#D6D6FF" cx="10" cy="10" r="10"></circle>
                <path d="M12.795135,6.03314812 C13.4282355,6.03314812 16.4584644,5.87244984 15.9044275,8.72980254 C15.826995,9.04298196 15.768813,9.52272904 16.1488598,9.62422545 C16.4950835,9.70923505 16.7082919,9.3560913 16.8036486,9.08732642 C16.8493732,8.77447988 18.2510275,4.67961731 12.8458963,5.02009372 C12.6731788,5.04986109 12.2897623,5.19414263 12.2870378,5.50458885 C12.2843671,5.81508764 12.6232419,6.01718692 12.795135,6.03314812 Z M12.9652715,7.27298822 C13.0663819,7.26142468 14.6417574,6.99122311 14.5127749,8.61502556 C14.536166,8.76258344 14.4293199,9.01545721 14.6417574,9.06733549 C14.8541054,9.11928386 14.9375784,8.94873905 14.9603242,8.79303412 C14.9830879,8.63725911 15.3506057,6.5250194 12.9905625,6.76880001 C12.8120196,6.78802003 12.6922143,6.89233725 12.7124507,7.04564186 C12.7326871,7.19887639 12.864179,7.28455177 12.9652715,7.27298822 Z M13.633378,9.80244425 C13.633378,9.80244425 12.9983237,9.93659893 13.29807,9.47468775 C13.770749,8.57129433 13.0028047,7.08923293 11.0118208,8.07421945 C10.3259335,8.43181341 10.3259335,8.17851915 10.3488406,7.73160554 C10.4104461,5.29152172 5.78390617,7.03132759 4.47312758,10.2031562 C3.73404125,12.1284344 4.91766559,13.7922012 6.74872983,14.5178664 C11.2175368,16.0775437 14.4716747,13.4972957 15.0266258,11.8286757 C15.7663574,9.32192627 13.633378,9.80244425 13.633378,9.80244425 Z M9.3475412,13.940162 C7.2319841,14.2246078 5.3568801,13.3164137 5.15915829,11.911688 C4.96149025,10.5069622 6.51621715,9.13762785 8.63168463,8.85319961 C10.7471521,8.56882393 12.6223457,9.4769479 12.8199959,10.8816737 C13.017646,12.2863995 11.4630087,13.6557338 9.3475412,13.940162 Z M10.9600019,11.0125345 C10.792106,10.1567619 9.76182317,9.63060292 8.65871432,9.83734514 C7.55553378,10.044175 6.79739403,10.9054841 6.96528998,11.7612567 C7.13313216,12.6170293 8.16348669,13.1431883 9.26659553,12.9363585 C10.3697044,12.7296162 11.1279158,11.8682896 10.9600019,11.0125345 Z M8.52736581,12.1470587 C8.14647662,12.1470587 7.83769649,11.8901903 7.83769649,11.573314 C7.83769649,11.2565078 8.14647662,10.9995868 8.52736581,10.9995868 C8.90825499,10.9995868 9.2170172,11.2565078 9.2170172,11.573314 C9.2170172,11.8901903 8.90825499,12.1470587 8.52736581,12.1470587 Z M9.65721755,11.3725288 C9.51507867,11.3725288 9.3705021,11.2055932 9.3705021,10.9995868 C9.3705021,10.7936506 9.51507867,10.6266624 9.65721755,10.6266624 C9.79941021,10.6266624 9.943933,10.7936506 9.943933,10.9995868 C9.943933,11.2055932 9.79941021,11.3725288 9.65721755,11.3725288 Z" id="Fill-1" fill="#212124"></path>
            </g>
        </g>
    </g>
</svg>